# xmcd
#
# Track frame offsets: 
#        150
#        18730
#        31825
#        44595
#        56957
#        68443
#        79665
#        90995
#        103535
#        117190
#        128316
#        137738
#        149461
#        158768
#        170197
#        182331
#        194673
#        205078
#        218769
#        232753
#        244154
#        259489
#
# Disc length: 3596 seconds
#
# Revision: 0
# Processed by: cddbd v1.5.2PL0 Copyright (c) Steve Scherf et al.
# Submitted via: ExactAudioCopy v0.99pb5
#
DISCID=320e0a16
DTITLE=Conway Twitty - I Love You More Today and To See My Angel Cry
DYEAR=2009
DGENRE=Country
TTITLE0=Star Spangled Heaven
TTITLE1=Games People Play
TTITLE2=The Bottle in the Hand (So Much Stronger Than the Man)
TTITLE3=Crazy Arms
TTITLE4=I Love You More Today
TTITLE5=Johnny B. Goode
TTITLE6=Proud Mary
TTITLE7=I'll Share My World With You
TTITLE8=Heartaches By the Number
TTITLE9=World of Forgotten People
TTITLE10=On for the Money
TTITLE11=The House of the Rising Sun
TTITLE12=Be Proud of Your Man
TTITLE13=These Lonely Hands of Mine
TTITLE14=To See My Angel Cry
TTITLE15=My Heart Knows
TTITLE16=I'd Rather Be Gone
TTITLE17=Okie From Muskogee
TTITLE18=That's When She Started to Stop Loving You
TTITLE19=Girl at the Bar
TTITLE20=All I Have to Offer You Is Me
TTITLE21=I Did the Best I Could (With What I Had)
EXTD=
EXTT0=
EXTT1=
EXTT2=
EXTT3=
EXTT4=
EXTT5=
EXTT6=
EXTT7=
EXTT8=
EXTT9=
EXTT10=
EXTT11=
EXTT12=
EXTT13=
EXTT14=
EXTT15=
EXTT16=
EXTT17=
EXTT18=
EXTT19=
EXTT20=
EXTT21=
PLAYORDER=
